HIERARCHY
ROOT Hips
{
	OFFSET 0 0 0
	CHANNELS 6 Xposition Yposition Zposition Yrotation Xrotation Zrotation
	JOINT Spine
	{
		OFFSET -0 7.6537 -2.43962
		CHANNELS 3 Yrotation Xrotation Zrotation
		JOINT Spine1
		{
			OFFSET -0 6.97908 0
			CHANNELS 3 Yrotation Xrotation Zrotation
			JOINT Spine2
			{
				OFFSET -0 6.97908 0
				CHANNELS 3 Yrotation Xrotation Zrotation
				JOINT Spine3
				{
					OFFSET -0 6.97908 0
					CHANNELS 3 Yrotation Xrotation Zrotation
					JOINT Neck
					{
						OFFSET -0 12.4536 3.43962
						CHANNELS 3 Yrotation Xrotation Zrotation
						JOINT Head
						{
							OFFSET -0 9.56712 0
							CHANNELS 3 Yrotation Xrotation Zrotation
							End Site
							{
								OFFSET 0 15 0
							}
						}
					}
					JOINT LeftShoulder
					{
						OFFSET 1.59452 1.70466 3.18904
						CHANNELS 3 Yrotation Xrotation Zrotation
						JOINT LeftArm
						{
							OFFSET 16.7394 0 0
							CHANNELS 3 Yrotation Xrotation Zrotation
							JOINT LeftForeArm
							{
								OFFSET 22.0792 0 0
								CHANNELS 3 Yrotation Xrotation Zrotation
								JOINT LeftHand
								{
									OFFSET 21.9518 0 0
									CHANNELS 3 Yrotation Xrotation Zrotation
									JOINT LeftHandThumb1
									{
										OFFSET 4.21471 0 2.29637
										CHANNELS 3 Yrotation Xrotation Zrotation
										JOINT LeftHandThumb2
										{
											OFFSET 3 0 1
											CHANNELS 3 Yrotation Xrotation Zrotation
											JOINT LeftHandThumb3
											{
												OFFSET 2.1 0 0
												CHANNELS 3 Yrotation Xrotation Zrotation
												JOINT LeftHandThumb4
												{
													OFFSET 1.305 0 0
													CHANNELS 3 Yrotation Xrotation Zrotation
													End Site
													{
														OFFSET -0 0 0
													}
												}
											}
										}
									}
									JOINT LeftHandIndex1
									{
										OFFSET 7.90742 0 3.16134
										CHANNELS 3 Yrotation Xrotation Zrotation
										JOINT LeftHandIndex2
										{
											OFFSET 3.5 0 0
											CHANNELS 3 Yrotation Xrotation Zrotation
											JOINT LeftHandIndex3
											{
												OFFSET 2.45 0 0
												CHANNELS 3 Yrotation Xrotation Zrotation
												JOINT LeftHandIndex4
												{
													OFFSET 1.5225 0 0
													CHANNELS 3 Yrotation Xrotation Zrotation
													End Site
													{
														OFFSET -0 0 0
													}
												}
											}
										}
									}
									JOINT LeftHandMiddle1
									{
										OFFSET 7.88523 0 0.8816
										CHANNELS 3 Yrotation Xrotation Zrotation
										JOINT LeftHandMiddle2
										{
											OFFSET 4.6 0 0
											CHANNELS 3 Yrotation Xrotation Zrotation
											JOINT LeftHandMiddle3
											{
												OFFSET 3.22 0 0
												CHANNELS 3 Yrotation Xrotation Zrotation
												JOINT LeftHandMiddle4
												{
													OFFSET 2.001 0 0
													CHANNELS 3 Yrotation Xrotation Zrotation
													End Site
													{
														OFFSET -0 0 0
													}
												}
											}
										}
									}
									JOINT LeftHandRing1
									{
										OFFSET 7.56303 0 -1.39814
										CHANNELS 3 Yrotation Xrotation Zrotation
										JOINT LeftHandRing2
										{
											OFFSET 3.75 0 0
											CHANNELS 3 Yrotation Xrotation Zrotation
											JOINT LeftHandRing3
											{
												OFFSET 2.625 0 0
												CHANNELS 3 Yrotation Xrotation Zrotation
												JOINT LeftHandRing4
												{
													OFFSET 1.63125 0 0
													CHANNELS 3 Yrotation Xrotation Zrotation
													End Site
													{
														OFFSET -0 0 0
													}
												}
											}
										}
									}
									JOINT LeftHandPinky1
									{
										OFFSET 6.94084 0 -3.67789
										CHANNELS 3 Yrotation Xrotation Zrotation
										JOINT LeftHandPinky2
										{
											OFFSET 2.875 0 0
											CHANNELS 3 Yrotation Xrotation Zrotation
											JOINT LeftHandPinky3
											{
												OFFSET 2.0125 0 0
												CHANNELS 3 Yrotation Xrotation Zrotation
												JOINT LeftHandPinky4
												{
													OFFSET 1.25062 0 0
													CHANNELS 3 Yrotation Xrotation Zrotation
													End Site
													{
														OFFSET -0 0 0
													}
												}
											}
										}
									}
								}
							}
						}
					}
					JOINT RightShoulder
					{
						OFFSET -1.59452 1.70466 3.18904
						CHANNELS 3 Yrotation Xrotation Zrotation
						JOINT RightArm
						{
							OFFSET -16.7394 0 0
							CHANNELS 3 Yrotation Xrotation Zrotation
							JOINT RightForeArm
							{
								OFFSET -22.0792 0 0
								CHANNELS 3 Yrotation Xrotation Zrotation
								JOINT RightHand
								{
									OFFSET -21.9518 0 0
									CHANNELS 3 Yrotation Xrotation Zrotation
									JOINT RightHandThumb1
									{
										OFFSET -4.13818 0 2.6379
										CHANNELS 3 Yrotation Xrotation Zrotation
										JOINT RightHandThumb2
										{
											OFFSET -3 0 1
											CHANNELS 3 Yrotation Xrotation Zrotation
											JOINT RightHandThumb3
											{
												OFFSET -2.1 0 0
												CHANNELS 3 Yrotation Xrotation Zrotation
												JOINT RightHandThumb4
												{
													OFFSET -1.305 0 0
													CHANNELS 3 Yrotation Xrotation Zrotation
													End Site
													{
														OFFSET -0 0 0
													}
												}
											}
										}
									}
									JOINT RightHandIndex1
									{
										OFFSET -6.97845 0 3.45401
										CHANNELS 3 Yrotation Xrotation Zrotation
										JOINT RightHandIndex2
										{
											OFFSET -3.5 0 0
											CHANNELS 3 Yrotation Xrotation Zrotation
											JOINT RightHandIndex3
											{
												OFFSET -2.45 0 0
												CHANNELS 3 Yrotation Xrotation Zrotation
												JOINT RightHandIndex4
												{
													OFFSET -1.5225 0 0
													CHANNELS 3 Yrotation Xrotation Zrotation
													End Site
													{
														OFFSET -0 0 0
													}
												}
											}
										}
									}
									JOINT RightHandMiddle1
									{
										OFFSET -7.47728 0 1.18452
										CHANNELS 3 Yrotation Xrotation Zrotation
										JOINT RightHandMiddle2
										{
											OFFSET -4.6 0 0
											CHANNELS 3 Yrotation Xrotation Zrotation
											JOINT RightHandMiddle3
											{
												OFFSET -3.22 0 0
												CHANNELS 3 Yrotation Xrotation Zrotation
												JOINT RightHandMiddle4
												{
													OFFSET -2.001 0 0
													CHANNELS 3 Yrotation Xrotation Zrotation
													End Site
													{
														OFFSET -0 0 0
													}
												}
											}
										}
									}
									JOINT RightHandRing1
									{
										OFFSET -7.67611 0 -1.08498
										CHANNELS 3 Yrotation Xrotation Zrotation
										JOINT RightHandRing2
										{
											OFFSET -3.75 0 0
											CHANNELS 3 Yrotation Xrotation Zrotation
											JOINT RightHandRing3
											{
												OFFSET -2.625 0 0
												CHANNELS 3 Yrotation Xrotation Zrotation
												JOINT RightHandRing4
												{
													OFFSET -1.63125 0 0
													CHANNELS 3 Yrotation Xrotation Zrotation
													End Site
													{
														OFFSET -0 0 0
													}
												}
											}
										}
									}
									JOINT RightHandPinky1
									{
										OFFSET -7.57495 0 -3.35448
										CHANNELS 3 Yrotation Xrotation Zrotation
										JOINT RightHandPinky2
										{
											OFFSET -2.875 0 0
											CHANNELS 3 Yrotation Xrotation Zrotation
											JOINT RightHandPinky3
											{
												OFFSET -2.0125 0 0
												CHANNELS 3 Yrotation Xrotation Zrotation
												JOINT RightHandPinky4
												{
													OFFSET -1.25062 0 0
													CHANNELS 3 Yrotation Xrotation Zrotation
													End Site
													{
														OFFSET -0 0 0
													}
												}
											}
										}
									}
								}
							}
						}
					}
				}
			}
		}
	}
	JOINT LeftUpLeg
	{
		OFFSET 9.56712 -3.18904 3
		CHANNELS 3 Yrotation Xrotation Zrotation
		JOINT LeftLeg
		{
			OFFSET -0 -42.4756 2.23233
			CHANNELS 3 Yrotation Xrotation Zrotation
			JOINT LeftFoot
			{
				OFFSET -0 -34.3506 -2.23233
				CHANNELS 3 Yrotation Xrotation Zrotation
				JOINT LeftToeBase
				{
					OFFSET -0 -9.50731 8.10572
					CHANNELS 3 Yrotation Xrotation Zrotation
					End Site
					{
						OFFSET 0 0 5
					}
				}
			}
		}
	}
	JOINT RightUpLeg
	{
		OFFSET -9.56712 -3.18904 3
		CHANNELS 3 Yrotation Xrotation Zrotation
		JOINT RightLeg
		{
			OFFSET -0 -42.4756 2.23233
			CHANNELS 3 Yrotation Xrotation Zrotation
			JOINT RightFoot
			{
				OFFSET -0 -34.3506 -2.23233
				CHANNELS 3 Yrotation Xrotation Zrotation
				JOINT RightToeBase
				{
					OFFSET -0 -9.50731 8.10572
					CHANNELS 3 Yrotation Xrotation Zrotation
					End Site
					{
						OFFSET 0 0 5
					}
				}
			}
		}
	}
}
MOTION
Frames: 5
Frame Time: 0.0047619
13.386665 88.191644 -2.993297 -7.741572 11.168490 3.424212 3.970632 1.206514 1.625238 3.575656 1.138358 1.118395 1.581531 1.201616 0.580374 0.985544 1.195333 0.214152 37.601698 1.558596 -4.816135 17.298762 -17.580277 -9.484292 14.580066 3.956254 4.200399 -0.444886 13.319166 -24.295771 -48.063436 2.004575 -5.387830 60.467760 -40.995301 -81.279248 5.599283 -15.382619 2.512507 6.412277 -17.709154 2.768310 -53.984955 13.791977 -14.675360 0.000013 -0.000006 12.499998 0.000013 -0.000006 12.499998 -0.000007 0.000003 9.999999 -0.000010 -0.000000 4.999996 0.000009 0.000038 10.714086 0.000009 0.000038 10.714086 -0.000022 0.000040 8.571267 -0.000002 0.000012 4.285635 -0.000001 0.000069 -7.337219 -0.000001 0.000069 -7.337219 0.000002 0.000061 -5.869769 -0.000004 0.000029 -2.934885 0.000007 -0.000014 -28.534684 0.000007 -0.000014 -28.534684 0.000009 -0.000011 -22.827728 -0.000011 -0.000003 -11.413894 -170.564678 -0.009478 -179.885147 -11.568166 6.202186 -1.177197 0.278954 -4.838905 1.456170 66.346824 -16.183045 -2.404476 -83.119589 -16.645947 66.653686 12.038702 -5.708632 -17.742296 13.984580 -6.229184 -20.505592 -44.938337 20.752109 10.248692 -0.000003 -0.000000 -12.499998 -0.000003 -0.000000 -12.499998 0.000003 -0.000002 -9.999996 -0.000007 -0.000001 -5.000004 -0.000510 -0.000388 108.694677 -0.000510 -0.000388 108.694677 0.000408 -0.000287 86.955740 0.000148 0.000203 43.477872 -0.000003 -0.000000 -12.499998 -0.000003 -0.000000 -12.499998 0.000003 -0.000002 -9.999996 -0.000007 -0.000001 -5.000004 -0.000002 -0.000002 106.249954 -0.000002 -0.000002 106.249954 0.000003 -0.000003 85.000113 -0.000002 -0.000001 42.499966 5.599283 -15.382619 2.512507 11.095158 -11.043255 -19.936620 0.000000 8.704994 0.000000 13.596685 0.859744 12.063324 0.000000 -10.167686 0.000000 6.337423 -81.405096 -57.111772 180.000000 76.946439 180.000000 -29.804955 -17.274911 3.571737 0.000000 -17.903646 0.000000
13.385770 88.195447 -2.993957 -7.731987 11.171419 3.430339 3.972816 1.195654 1.625621 3.578654 1.118575 1.120614 1.569315 1.205437 0.582401 0.973705 1.195391 0.215828 37.596309 1.544763 -4.783615 17.297324 -17.547800 -9.474500 14.580346 3.960597 4.209705 -0.455687 13.316212 -24.305122 -48.013845 1.932388 -5.396353 60.388661 -40.952504 -81.190907 5.599283 -15.382619 2.512507 6.412277 -17.709154 2.768310 -53.984955 13.791977 -14.675360 0.000013 -0.000006 12.499998 0.000013 -0.000006 12.499998 -0.000007 0.000003 9.999999 -0.000010 -0.000000 4.999996 0.000009 0.000038 10.714086 0.000009 0.000038 10.714086 -0.000022 0.000040 8.571267 -0.000002 0.000012 4.285635 -0.000001 0.000069 -7.337219 -0.000001 0.000069 -7.337219 0.000002 0.000061 -5.869769 -0.000004 0.000029 -2.934885 0.000007 -0.000014 -28.534684 0.000007 -0.000014 -28.534684 0.000009 -0.000011 -22.827728 -0.000011 -0.000003 -11.413894 -170.564678 -0.009478 -179.885147 -11.561577 6.205693 -1.156929 0.283330 -4.770776 1.423989 66.348202 -16.247392 -2.428601 -83.091627 -16.661367 66.604293 12.038702 -5.708632 -17.742296 13.984580 -6.229184 -20.505592 -44.938337 20.752109 10.248692 -0.000003 -0.000000 -12.499998 -0.000003 -0.000000 -12.499998 0.000003 -0.000002 -9.999996 -0.000007 -0.000001 -5.000004 -0.000510 -0.000388 108.694677 -0.000510 -0.000388 108.694677 0.000408 -0.000287 86.955740 0.000148 0.000203 43.477872 -0.000003 -0.000000 -12.499998 -0.000003 -0.000000 -12.499998 0.000003 -0.000002 -9.999996 -0.000007 -0.000001 -5.000004 -0.000002 -0.000002 106.249954 -0.000002 -0.000002 106.249954 0.000003 -0.000003 85.000113 -0.000002 -0.000001 42.499966 5.599283 -15.382619 2.512507 11.110423 -11.039512 -19.938229 0.000000 8.705728 0.000000 13.564430 0.903602 12.029462 0.000000 -10.243717 0.000000 6.205286 -81.402598 -56.982045 180.000000 76.923990 180.000000 -29.761346 -17.271134 3.576136 0.000000 -17.908663 0.000000
13.382965 88.197729 -2.994304 -7.719192 11.175355 3.435442 3.973397 1.184628 1.621720 3.579263 1.107287 1.120828 1.569073 1.189214 0.587865 0.971241 1.196312 0.215205 37.604581 1.564085 -4.731657 17.309580 -17.545218 -9.491210 14.566170 3.966787 4.226349 -0.455731 13.316512 -24.301090 -47.990322 1.842537 -5.420306 62.058369 -41.142555 -83.075061 5.388408 -14.771332 3.064391 6.155452 -17.009601 3.415230 -53.974670 13.782815 -14.671618 0.000003 -0.000003 12.499999 0.000003 -0.000003 12.499999 -0.000000 0.000005 10.000002 -0.000002 0.000000 4.999996 0.002864 -0.000100 11.437334 0.002864 -0.000100 11.437334 0.002250 0.000370 9.149879 0.001080 0.000358 4.574931 0.003751 -0.000132 -6.388106 0.003751 -0.000132 -6.388106 0.002965 -0.000445 -5.110489 0.001463 -0.000350 -2.555246 -0.000992 0.000033 -28.787980 -0.000992 0.000033 -28.787980 -0.000690 0.000418 -23.030402 -0.000235 0.000312 -11.515189 -170.564715 -0.009478 -179.885147 -11.558393 6.206243 -1.151672 0.261206 -4.835928 1.462832 66.315287 -16.178163 -2.378609 -83.395464 -16.796444 67.061251 12.147332 -5.677627 -17.784255 14.108665 -6.189782 -20.553757 -45.025971 20.958189 9.836775 -0.000001 0.000005 -12.499999 -0.000001 0.000005 -12.499999 -0.000011 -0.000003 -10.000006 0.000010 -0.000002 -4.999993 -0.001878 -0.000234 106.824260 -0.001878 -0.000234 106.824260 0.000626 -0.001382 85.459397 0.000701 0.000259 42.729700 -0.000001 0.000005 -12.499999 -0.000001 0.000005 -12.499999 -0.000011 -0.000003 -10.000006 0.000010 -0.000002 -4.999993 -0.000008 -0.000007 106.249992 -0.000008 -0.000007 106.249992 -0.000006 0.000001 85.000026 0.000003 0.000003 42.499994 5.388408 -14.771332 3.064391 11.117317 -11.035150 -19.936156 0.000000 8.704488 0.000000 13.527389 0.884180 11.994439 0.000000 -10.237633 0.000000 6.100535 -81.403132 -56.872817 180.000000 76.904777 180.000000 -29.786172 -17.256430 3.563442 0.000000 -17.907489 0.000000
13.379204 88.200781 -2.993870 -7.710947 11.178953 3.442901 3.978872 1.174384 1.616529 3.584468 1.096834 1.120448 1.555961 1.183737 0.594529 0.959579 1.180529 0.222450 37.601578 1.584167 -4.702678 17.307320 -17.543459 -9.470385 14.567929 3.975275 4.224877 -0.472642 13.350558 -24.295776 -47.943920 1.832113 -5.411992 61.885396 -41.139443 -82.925271 5.388408 -14.771332 3.064391 6.155452 -17.009601 3.415230 -53.974670 13.782815 -14.671618 0.000003 -0.000003 12.499999 0.000003 -0.000003 12.499999 -0.000000 0.000005 10.000002 -0.000002 0.000000 4.999996 0.002864 -0.000100 11.437334 0.002864 -0.000100 11.437334 0.002250 0.000370 9.149879 0.001080 0.000358 4.574931 0.003751 -0.000132 -6.388106 0.003751 -0.000132 -6.388106 0.002965 -0.000445 -5.110489 0.001463 -0.000350 -2.555246 -0.000992 0.000033 -28.787980 -0.000992 0.000033 -28.787980 -0.000690 0.000418 -23.030402 -0.000235 0.000312 -11.515189 -170.564715 -0.009478 -179.885147 -11.552181 6.217004 -1.151709 0.251835 -4.804679 1.472264 66.314403 -16.173457 -2.394836 -83.375457 -16.792972 67.043077 12.147332 -5.677627 -17.784255 14.108665 -6.189782 -20.553757 -45.025971 20.958189 9.836775 -0.000001 0.000005 -12.499999 -0.000001 0.000005 -12.499999 -0.000011 -0.000003 -10.000006 0.000010 -0.000002 -4.999993 -0.001878 -0.000234 106.824260 -0.001878 -0.000234 106.824260 0.000626 -0.001382 85.459397 0.000701 0.000259 42.729700 -0.000001 0.000005 -12.499999 -0.000001 0.000005 -12.499999 -0.000011 -0.000003 -10.000006 0.000010 -0.000002 -4.999993 -0.000008 -0.000007 106.249992 -0.000008 -0.000007 106.249992 -0.000006 0.000001 85.000026 0.000003 0.000003 42.499994 5.388408 -14.771332 3.064391 11.139354 -11.025057 -19.937835 0.000000 8.716713 0.000000 13.491231 0.843049 11.946838 0.000000 -10.161748 0.000000 5.926915 -81.403684 -56.697258 180.000000 76.880402 180.000000 -29.749800 -17.313066 3.544586 0.000000 -17.877864 0.000000
13.376300 88.202917 -2.994692 -7.703098 11.181875 3.447907 3.983676 1.158268 1.620868 3.588131 1.089845 1.122107 1.556686 1.188574 0.592637 0.961377 1.175673 0.219356 37.594519 1.568579 -4.661768 17.307047 -17.512912 -9.463304 14.553016 3.971490 4.239172 -0.487033 13.336210 -24.296771 -47.897682 1.716941 -5.450656 61.658127 -41.105247 -82.650125 5.388408 -14.771332 3.064391 6.155452 -17.009601 3.415230 -53.974670 13.782815 -14.671618 0.000003 -0.000003 12.499999 0.000003 -0.000003 12.499999 -0.000000 0.000005 10.000002 -0.000002 0.000000 4.999996 0.002864 -0.000100 11.437334 0.002864 -0.000100 11.437334 0.002250 0.000370 9.149879 0.001080 0.000358 4.574931 0.003751 -0.000132 -6.388106 0.003751 -0.000132 -6.388106 0.002965 -0.000445 -5.110489 0.001463 -0.000350 -2.555246 -0.000992 0.000033 -28.787980 -0.000992 0.000033 -28.787980 -0.000690 0.000418 -23.030402 -0.000235 0.000312 -11.515189 -170.564715 -0.009478 -179.885147 -11.551708 6.208837 -1.139138 0.212655 -4.806734 1.484363 66.318864 -16.150922 -2.390707 -83.361961 -16.775090 67.031163 12.147332 -5.677627 -17.784255 14.108665 -6.189782 -20.553757 -45.025971 20.958189 9.836775 -0.000001 0.000005 -12.499999 -0.000001 0.000005 -12.499999 -0.000011 -0.000003 -10.000006 0.000010 -0.000002 -4.999993 -0.001878 -0.000234 106.824260 -0.001878 -0.000234 106.824260 0.000626 -0.001382 85.459397 0.000701 0.000259 42.729700 -0.000001 0.000005 -12.499999 -0.000001 0.000005 -12.499999 -0.000011 -0.000003 -10.000006 0.000010 -0.000002 -4.999993 -0.000008 -0.000007 106.249992 -0.000008 -0.000007 106.249992 -0.000006 0.000001 85.000026 0.000003 0.000003 42.499994 5.388408 -14.771332 3.064391 11.156747 -11.016110 -19.937702 0.000000 8.715302 0.000000 13.441124 0.832127 11.907684 0.000000 -10.189383 0.000000 5.830529 -81.403594 -56.593446 180.000000 76.862575 180.000000 -29.743791 -17.301391 3.568812 0.000000 -17.875214 0.000000
